<?xml version="1.0" standalone="no"?>
<!DOCTYPE svg PUBLIC "-//W3C//DTD SVG 20010904//EN"
 "http://www.w3.org/TR/2001/REC-SVG-20010904/DTD/svg10.dtd">
<svg version="1.0" xmlns="http://www.w3.org/2000/svg"
 width="376.000000pt" height="373.000000pt" viewBox="0 0 376.000000 373.000000"
 preserveAspectRatio="xMidYMid meet">

<g transform="translate(0.000000,373.000000) scale(0.100000,-0.100000)"
fill="#000000" stroke="none">
<path d="M1822 3480 c-48 -11 -81 -37 -263 -210 -89 -85 -246 -234 -348 -330
-786 -742 -1000 -949 -1017 -981 -22 -44 -18 -137 9 -180 12 -20 148 -155 302
-299 154 -145 325 -306 380 -359 411 -396 854 -810 887 -830 53 -32 146 -34
200 -6 33 18 157 131 443 405 187 179 718 681 984 930 93 88 150 149 162 175
24 52 24 116 0 164 -12 23 -117 129 -263 267 -134 125 -288 271 -343 324 -128
124 -450 430 -730 694 -121 115 -233 214 -250 221 -42 18 -114 25 -153 15z
m133 -73 c18 -10 220 -196 445 -412 92 -89 241 -230 770 -731 140 -133 270
-254 288 -269 18 -15 39 -40 47 -56 17 -32 20 -92 5 -119 -9 -17 -248 -246
-835 -800 -154 -146 -378 -358 -497 -472 -238 -227 -258 -240 -338 -218 -45
12 -69 33 -356 305 -104 98 -317 301 -474 449 -282 267 -590 559 -704 667 -53
51 -59 60 -63 106 -8 83 -66 21 707 753 201 189 419 396 485 460 180 173 344
324 363 334 43 25 112 26 157 3z"/>
<path d="M1689 2854 c-162 -29 -346 -114 -484 -224 -91 -72 -285 -278 -285
-302 0 -5 13 0 30 12 46 32 266 135 360 168 369 128 839 119 1204 -25 100 -39
227 -101 289 -140 l40 -25 -23 33 c-52 75 -197 223 -279 285 -149 112 -342
197 -511 224 -88 14 -249 11 -341 -6z"/>
<path d="M850 2220 c0 -19 5 -30 14 -30 8 0 22 -7 30 -16 14 -13 16 -52 16
-273 0 -267 -2 -281 -42 -281 -13 0 -18 -8 -18 -30 l0 -30 165 0 165 0 0 25
c0 19 -8 28 -27 36 -15 6 -31 16 -35 22 -4 7 -8 63 -8 125 l0 112 110 0 110 0
0 -118 c0 -122 -6 -142 -42 -142 -13 0 -18 -8 -18 -30 l0 -30 160 0 160 0 0
30 c0 22 -5 30 -18 30 -40 0 -42 14 -42 288 l0 264 30 11 c23 9 30 17 30 39
l0 28 -160 0 -160 0 0 -28 c0 -22 7 -30 30 -39 l31 -12 -3 -103 -3 -103 -105
0 -105 0 -3 96 c-3 103 7 129 49 129 14 0 19 7 19 30 l0 30 -165 0 -165 0 0
-30z"/>
<path d="M1624 2151 l-9 -99 27 -4 c35 -6 40 -2 63 50 23 54 48 72 98 72 l38
0 -3 -265 c-3 -285 -3 -284 -55 -285 -19 0 -23 -6 -23 -30 l0 -30 173 2 172 3
0 25 c0 19 -6 26 -25 28 -50 7 -50 7 -50 291 l0 267 40 -4 c46 -5 84 -37 100
-88 10 -30 15 -34 47 -34 l36 0 -7 61 c-3 34 -6 79 -6 100 l0 39 -304 0 -303
0 -9 -99z"/>
<path d="M2280 2223 c0 -24 6 -31 33 -38 l32 -10 3 -259 c2 -230 0 -261 -14
-278 -10 -10 -25 -18 -36 -18 -13 0 -18 -8 -18 -30 l0 -30 170 0 170 0 0 30
c0 25 -4 30 -23 30 -44 0 -58 29 -55 111 l3 74 100 6 c105 6 162 23 204 62 63
58 81 186 38 268 -17 33 -37 52 -78 74 l-54 30 -237 3 -238 4 0 -29z m395 -67
c32 -21 48 -76 43 -153 -4 -56 -8 -69 -31 -89 -27 -23 -104 -41 -132 -30 -12
4 -15 30 -15 152 l0 147 56 -6 c30 -3 66 -13 79 -21z"/>
<path d="M954 1406 c-37 -37 -45 -82 -23 -129 22 -49 102 -72 152 -45 33 17
46 39 47 76 0 32 0 32 -50 32 -43 0 -50 -3 -50 -20 0 -15 7 -20 26 -20 22 0
25 -2 14 -15 -17 -21 -63 -19 -83 3 -21 23 -22 66 -1 86 18 18 65 21 81 5 6
-6 23 -9 39 -7 l29 3 -32 33 c-26 26 -39 32 -73 32 -34 0 -48 -6 -76 -34z"/>
<path d="M1180 1329 c0 -109 0 -110 23 -107 18 2 22 9 22 36 0 44 29 43 56 -3
17 -27 27 -35 51 -35 31 0 31 2 -3 51 -18 26 -18 27 1 44 28 25 25 70 -5 100
-20 21 -34 25 -85 25 l-60 0 0 -111z m115 36 c0 -15 -8 -21 -32 -23 -30 -3
-33 -1 -33 23 0 24 3 26 33 23 24 -2 32 -8 32 -23z"/>
<path d="M1438 1423 c-66 -41 -65 -147 2 -186 48 -29 97 -22 137 18 33 33 35
39 30 82 -9 87 -96 131 -169 86z m104 -50 c39 -35 11 -103 -43 -103 -36 0 -59
24 -59 60 0 54 61 80 102 43z"/>
<path d="M1650 1355 c0 -78 2 -88 25 -110 30 -31 89 -33 125 -5 23 17 25 27
28 109 l4 91 -26 0 c-26 0 -26 -1 -26 -72 0 -86 -7 -101 -46 -96 l-29 3 -3 83
c-3 80 -3 82 -27 82 -25 0 -25 -1 -25 -85z"/>
<path d="M1880 1330 l0 -110 25 0 c22 0 25 4 25 35 0 32 2 35 31 35 32 0 69
15 81 34 4 6 8 25 8 43 0 48 -38 73 -111 73 l-59 0 0 -110z m118 33 c3 -20 -1
-23 -32 -23 -32 0 -36 3 -36 26 0 23 3 25 33 22 24 -2 33 -8 35 -25z"/>
<path d="M2240 1330 l0 -110 25 0 25 0 0 110 0 110 -25 0 -25 0 0 -110z"/>
<path d="M2340 1330 l0 -110 25 0 c23 0 24 4 27 62 l3 63 40 -63 c33 -51 45
-62 68 -62 l27 0 0 110 0 110 -25 0 c-24 0 -25 -2 -25 -67 l0 -68 -45 68 c-36
53 -51 67 -70 67 l-25 0 0 -110z"/>
<path d="M2604 1406 c-28 -28 -34 -42 -34 -76 0 -58 50 -110 105 -110 35 0 95
31 95 50 0 14 -41 23 -53 11 -17 -17 -62 -13 -80 7 -50 55 18 130 82 91 12 -8
23 -9 36 -2 17 10 17 13 -10 37 -42 39 -97 36 -141 -8z"/>
<path d="M2053 1263 c-3 -9 -1 -24 6 -35 9 -15 9 -23 0 -34 -9 -11 -8 -14 3
-14 23 0 38 22 38 56 0 24 -5 33 -21 37 -13 4 -22 0 -26 -10z"/>
<path d="M2800 1265 c-17 -20 -5 -45 20 -45 11 0 23 7 26 15 6 15 -11 45 -26
45 -4 0 -13 -7 -20 -15z"/>
</g>
</svg>
